<?xml version="1.0" encoding="UTF-8"?>
<svg id="Layer_2" data-name="Layer 2" xmlns="http://www.w3.org/2000/svg" xmlns:xlink="http://www.w3.org/1999/xlink" viewBox="0 0 1013.88 477.75">
  <defs>
    <style>
      .cls-1 {
        fill: url(#New_Gradient_Swatch);
      }

      .cls-2 {
        fill: url(#radial-gradient);
      }

      .cls-3 {
        fill: #0b3954;
      }
    </style>
    <radialGradient id="radial-gradient" cx="176.93" cy="757.95" fx="176.93" fy="757.95" r="212.31" gradientTransform="translate(-33.82 982.6) rotate(1.57) scale(1 -1)" gradientUnits="userSpaceOnUse">
      <stop offset="0" stop-color="#7ccbc3"/>
      <stop offset=".27" stop-color="#7ac8c1"/>
      <stop offset=".44" stop-color="#74bfba"/>
      <stop offset=".59" stop-color="#69b1af"/>
      <stop offset=".71" stop-color="#5b9ca0"/>
      <stop offset=".83" stop-color="#48828c"/>
      <stop offset=".94" stop-color="#316174"/>
      <stop offset="1" stop-color="#214b64"/>
    </radialGradient>
    <linearGradient id="New_Gradient_Swatch" data-name="New Gradient Swatch" x1="270.61" y1="12.74" x2="56.79" y2="471.26" gradientUnits="userSpaceOnUse">
      <stop offset=".15" stop-color="#7ccbc3"/>
      <stop offset="1" stop-color="#214b64"/>
    </linearGradient>
  </defs>
  <g id="Layer_1-2" data-name="Layer 1">
    <g>
      <g>
        <path class="cls-3" d="M484.94,108.22v-17.89h-61.52l-22.63,23.12v101.8h84.15v-18.08h-62.19v-36.33h58.12v-18.08h-58.12v-34.54h62.19Z"/>
        <path class="cls-3" d="M574.96,90.32h-19.14l-56.51,124.92h23.03l12.55-28.89h61.55l12.55,28.89h23.21l-57.23-124.92ZM542.55,168.46l22.66-53.68h.73l23.15,53.68h-46.54Z"/>
        <path class="cls-3" d="M742.59,176.09c-2.49-5.32-5.68-9.27-9.57-11.88-1.73-1.15-3.59-2.04-5.53-2.67,2.07-.61,4.04-1.34,5.89-2.19,6.26-2.92,11.06-7.08,14.43-12.52,3.37-5.41,5.04-11.97,5.04-19.66,0-11.57-3.74-20.63-11.24-27.13-7.5-6.47-18.11-9.72-31.81-9.72h-54.56v124.92h22.85v-50.67h19.5c4.71,0,8.75.64,12.12,1.94,3.37,1.31,5.89,4.01,7.53,8.14l18.44,40.59h25.15l-18.26-39.16ZM724.43,142.67c-4.19,3.37-10.3,5.07-18.32,5.07h-28.01v-39.52h28.01c8.02,0,14.13,1.64,18.32,4.95,4.19,3.31,6.29,8.2,6.29,14.7s-2.1,11.42-6.29,14.79Z"/>
        <path class="cls-3" d="M773.43,90.33v18.77h41.29v106.15h22.88v-106.15h41.29v-18.77h-105.45Z"/>
        <path class="cls-3" d="M991.03,90.33v52.1h-63.98v-52.1h-22.85v124.92h22.85v-53.86h63.98v53.86h22.85v-124.92h-22.85Z"/>
        <path class="cls-3" d="M504.78,292.65c-5.07-9.27-12.55-16.34-22.39-21.27-9.87-4.89-21.96-7.35-36.24-7.35h-45.36v124.92h45.36c14.28,0,26.37-2.46,36.24-7.44,9.84-4.95,17.32-12.09,22.39-21.42,5.1-9.36,7.63-20.57,7.63-33.69s-2.52-24.49-7.63-33.75ZM478.38,359.18c-7.32,7.23-18.53,10.82-33.66,10.82h-21.08v-87.19h21.08c15.13,0,26.34,3.58,33.66,10.72,7.32,7.17,11,18.11,11,32.87s-3.68,25.58-11,32.78Z"/>
        <path class="cls-3" d="M593.95,264.03h-19.14l-56.54,124.92h23.03l12.55-28.86h61.58l12.55,28.86h23.21l-57.23-124.92ZM561.5,342.17l22.69-53.68h.7l23.15,53.68h-46.54Z"/>
        <path class="cls-3" d="M674.21,264.04v124.92h22.85v-124.92h-22.85Z"/>
        <path class="cls-3" d="M756.6,369.67v-105.63h-22.85v124.92h81.69v-19.29h-58.84Z"/>
        <path class="cls-3" d="M898.01,264.04l-34.36,52.92-34.39-52.92h-26.4l48.88,72.45v52.47h.39l22.48-22.94v-29.29l48.91-72.7h-25.52Z"/>
      </g>
      <g>
        <path class="cls-2" d="M91,117.83c-.93.57-2.14.27-2.71-.66-.57-.93-.27-2.14.66-2.71,23.87-14.53,51.44-21.86,79.37-21.12,1.09.13,1.87,1.12,1.74,2.21-.11.91-.83,1.63-1.74,1.74-27.22-.78-54.08,6.36-77.33,20.53ZM37.51,175.87c-.48.98-1.66,1.38-2.64.9-.98-.48-1.38-1.66-.9-2.64h0c7.72-15.58,18.17-29.66,30.85-41.57.77-.77,2.03-.77,2.8,0s.77,2.03,0,2.8c-12.38,11.59-22.58,25.31-30.12,40.5ZM22.9,232.13c0,1.08-.88,1.96-1.96,1.96s-1.96-.88-1.96-1.96v-4.82c.13-1.09,1.12-1.87,2.21-1.74.91.11,1.63.83,1.74,1.74v4.74l-.03.08ZM67.77,342.33c.77.77.77,2.03,0,2.8s-2.03.77-2.8,0c-27.56-25.72-44.04-61.16-45.94-98.81.06-1.1,1.01-1.94,2.1-1.87.93.05,1.7.75,1.85,1.68,1.87,36.69,17.97,71.2,44.88,96.2h-.08ZM226.49,111.58c-.97-.48-1.36-1.66-.88-2.63.48-.95,1.63-1.35,2.59-.9,44.65,21.82,75.07,64.92,80.69,114.29.12,1.08-.67,2.06-1.75,2.17s-2.06-.67-2.17-1.75h0c-5.49-48.03-35.1-89.95-78.53-111.18h.06ZM92.34,129.05c-.91.6-2.12.35-2.72-.56-.6-.91-.35-2.12.56-2.72,16.49-10.84,35.16-17.93,54.69-20.76,1.08-.15,2.07.59,2.23,1.67.15,1.08-.59,2.07-1.67,2.23h0c-18.96,2.75-37.08,9.62-53.09,20.14ZM55.6,165.29c-.65.86-1.89,1.04-2.75.38-.8-.6-1.01-1.71-.5-2.57,5.19-7.69,11.16-14.82,17.81-21.29.77-.77,2.03-.77,2.8,0s.77,2.03,0,2.8c-6.47,6.27-12.28,13.19-17.33,20.64l-.03.03ZM74.5,334.42c.77.77.77,2.03,0,2.8s-2.03.77-2.8,0c-24.22-22.76-39.2-53.66-42.07-86.78-.09-1.08.71-2.04,1.8-2.13,1.08-.09,2.04.71,2.13,1.8,2.82,32.12,17.38,62.08,40.89,84.14l.06.17ZM243.85,343.17c.89-.61,2.12-.39,2.73.51.57.83.42,1.95-.35,2.6-12.1,9.27-25.68,16.42-40.16,21.18-1.08.22-2.13-.48-2.35-1.55-.18-.9.28-1.82,1.11-2.2,14.06-4.58,27.25-11.49,39.01-20.45v-.08ZM285.31,187.95c-.37-1.02.15-2.15,1.17-2.52.95-.35,2.01.09,2.45,1,6.7,15.91,10.28,32.97,10.55,50.23-.13,1.09-1.12,1.87-2.21,1.74-.91-.11-1.63-.83-1.74-1.74-.26-16.74-3.73-33.28-10.21-48.72ZM202.96,113.35c-1.04-.32-1.62-1.42-1.3-2.45.32-1.04,1.42-1.62,2.45-1.3h0c29.9,9.28,55.67,28.62,72.92,54.75.6.91.35,2.12-.56,2.72-.91.6-2.12.35-2.72-.56h0c-16.74-25.44-41.81-44.28-70.9-53.29l.11.14ZM261.66,311.05c.66-.87,1.9-1.04,2.76-.38s1.04,1.9.38,2.76c-15.84,20.94-37.79,36.45-62.83,44.37-1.04.33-2.14-.25-2.47-1.29s.25-2.14,1.29-2.47c24.25-7.67,45.51-22.69,60.86-42.97v-.03ZM284.52,253.64c.12-1.08,1.09-1.87,2.17-1.75s1.87,1.09,1.75,2.17h0c-.73,6.76-2.05,13.44-3.93,19.97-.4,1.01-1.54,1.5-2.55,1.1-.87-.34-1.37-1.25-1.21-2.17,1.8-6.32,3.06-12.79,3.76-19.32ZM188.6,120.36c-1.07-.21-1.77-1.25-1.56-2.31.21-1.07,1.25-1.77,2.31-1.56,29.05,5.71,55.04,21.75,73.18,45.16,18.23,23.93,27.56,53.46,26.39,83.53,0,1.08-.88,1.96-1.96,1.96s-1.96-.88-1.96-1.96c1.11-29.17-7.97-57.83-25.69-81.03-17.52-22.64-42.63-38.19-70.71-43.78ZM135.11,121.45c-1.05.26-2.12-.38-2.38-1.43-.26-1.05.38-2.12,1.43-2.38,7.21-1.79,14.57-2.92,21.99-3.39,1.08-.07,2.02.75,2.09,1.84.07,1.08-.75,2.02-1.84,2.09-7.18.45-14.31,1.55-21.29,3.28ZM79.97,325.39c.77.77.77,2.03,0,2.8s-2.03.77-2.8,0c-19.3-18.81-31.98-43.36-36.15-69.98-.16-1.08.58-2.08,1.65-2.24,1.08-.16,2.08.58,2.24,1.65,4.05,25.79,16.35,49.56,35.06,67.76ZM273.05,258.83c.19-1.07,1.22-1.78,2.29-1.58,1.07.19,1.78,1.22,1.58,2.29h0c-7.61,41.16-37.07,74.89-76.82,87.99-1.03.34-2.14-.22-2.48-1.25s.22-2.14,1.25-2.48h0c38.38-12.66,66.81-45.22,74.19-84.96ZM255.91,176.87c-.61-.9-.38-2.12.52-2.73.9-.61,2.12-.38,2.73.52,15.22,22.52,21.94,49.72,18.96,76.74-.12,1.08-1.09,1.87-2.17,1.75s-1.87-1.09-1.75-2.17c2.91-26.09-3.58-52.36-18.29-74.1ZM160.24,128.3c-1.08,0-1.96-.88-1.96-1.96s.88-1.96,1.96-1.96h0c34.62-1.27,67.94,13.23,90.59,39.43.52.95.17,2.14-.78,2.66-.64.35-1.42.32-2.02-.08-21.95-25.38-54.26-39.39-87.79-38.09ZM80.53,310.83c.62.91.39,2.15-.52,2.77-.77.52-1.8.45-2.48-.19-8.15-9.48-14.69-20.22-19.38-31.81-.4-1.01.09-2.15,1.09-2.55s2.15.09,2.55,1.09h0c4.53,11.18,10.86,21.55,18.74,30.68ZM264.16,247.22c.09-1.08,1.03-1.89,2.12-1.81,1.08.09,1.89,1.03,1.81,2.12-3.55,42.09-32.17,77.86-72.45,90.57-1.04.33-2.14-.25-2.47-1.29s.25-2.14,1.29-2.47c38.74-12.23,66.27-46.63,69.7-87.12ZM241.25,174.41c-.7-.84-.58-2.08.25-2.78.84-.7,2.08-.58,2.78.25,14.56,17.34,23.05,38.96,24.18,61.56.05,1.08-.78,2.01-1.87,2.06s-2.01-.78-2.06-1.87c-1.09-21.76-9.26-42.56-23.28-59.24ZM154.3,139.04c-1.08.04-1.99-.81-2.03-1.89-.03-.99.67-1.84,1.64-2.01,30.84-3.11,61.47,7.7,83.53,29.48.77.77.77,2.03,0,2.8s-2.03.77-2.8,0c-21.23-20.93-50.66-31.33-80.33-28.38ZM86.98,302.58c.7.84.58,2.08-.25,2.78-.84.7-2.08.58-2.78-.25h0c-4.12-5.04-7.75-10.46-10.85-16.18-.42-1,.06-2.15,1.06-2.57.85-.35,1.84-.07,2.36.69,3,5.49,6.5,10.69,10.46,15.54ZM245.73,200.66c-.46-.98-.04-2.16.94-2.62s2.16-.04,2.62.94c21.94,46.99,1.64,102.87-45.35,124.82-2.78,1.3-5.61,2.46-8.5,3.47-1.03.36-2.15-.19-2.51-1.22-.36-1.03.19-2.15,1.22-2.51h0c46.85-16.53,71.43-67.9,54.9-114.75-.97-2.76-2.08-5.47-3.32-8.13ZM163.61,148.88c-1.08,0-1.96-.88-1.96-1.96s.88-1.96,1.96-1.96h0c30.93-.23,59.97,14.8,77.64,40.19.63.89.41,2.12-.48,2.75-.89.63-2.12.41-2.75-.48-16.92-24.35-44.76-38.77-74.41-38.54ZM234.49,201.3c-.51-.96-.15-2.15.81-2.66.96-.51,2.15-.15,2.66.81,21.7,40.71,6.29,91.3-34.42,113-.97.52-1.95,1.01-2.94,1.49-.98.46-2.15.04-2.61-.94-.45-.96-.05-2.11.9-2.59,39.58-19.16,56.14-66.78,36.99-106.36-.45-.92-.91-1.84-1.39-2.74ZM168.74,159.23c-1.08-.06-1.91-.99-1.85-2.08.06-1.08.99-1.91,2.08-1.85h0c21.67,1.19,42.02,10.79,56.71,26.76.77.77.77,2.03,0,2.8s-2.03.77-2.8,0c-14.02-15.24-33.43-24.4-54.1-25.52l-.03-.11ZM219.23,196.48c-.61-.89-.39-2.12.51-2.73.83-.57,1.95-.42,2.6.35,24.59,32.03,18.57,77.93-13.46,102.53-3.59,2.76-7.43,5.18-11.47,7.22-1,.42-2.15-.05-2.57-1.06-.37-.89-.04-1.91.77-2.42,34.08-17.32,47.67-58.99,30.35-93.07-1.91-3.77-4.17-7.35-6.74-10.71v-.11ZM201.98,180.66c-.86-.66-1.01-1.9-.35-2.75.59-.76,1.64-.98,2.48-.53,2.18,1.38,4.27,2.88,6.28,4.49.84.68.98,1.92.29,2.76-.68.84-1.92.98-2.76.29h0c-1.88-1.51-3.84-2.8-5.86-4.26h-.08ZM190.51,174.69c-1.01-.41-1.49-1.56-1.08-2.57.41-1.01,1.56-1.49,2.57-1.08,1.6.65,3.14,1.35,4.71,2.1.99.5,1.39,1.7.9,2.69s-1.7,1.39-2.69.9c-1.46-.7-2.8-1.37-4.46-1.99l.06-.06ZM152.73,170.54c-1.08.18-2.09-.55-2.27-1.63-.18-1.08.55-2.09,1.63-2.27,9.55-1.59,19.31-1.3,28.75.87,1.06.24,1.73,1.29,1.49,2.36-.24,1.06-1.29,1.73-2.36,1.49-8.94-2.05-18.19-2.33-27.23-.81ZM184.62,183.49c-1.02-.37-1.55-1.5-1.18-2.52s1.5-1.55,2.52-1.18c32.54,12.06,49.13,48.21,37.08,80.74-5.51,14.87-16.44,27.1-30.6,34.25-.98.49-2.16.09-2.65-.88-.49-.98-.09-2.16.88-2.65,29.06-14.62,40.77-50.02,26.15-79.08-6.7-13.33-18.22-23.62-32.21-28.79v.11ZM151.19,181.36c-1.06.24-2.12-.43-2.36-1.49-.24-1.06.43-2.12,1.49-2.36,7.44-1.68,15.11-2,22.66-.95,1.08.15,1.83,1.14,1.68,2.22-.15,1.08-1.14,1.83-2.22,1.68-7.08-.98-14.28-.68-21.26.9ZM149.84,192.44c-1.04.32-2.14-.27-2.45-1.3-.32-1.04.27-2.14,1.3-2.45,27.64-8.65,57.07,6.74,65.72,34.38,6.84,21.84-1.27,45.58-20.03,58.68-.89.62-2.12.4-2.73-.49-.62-.89-.4-2.12.49-2.73,21.94-15.38,27.27-45.64,11.89-67.58-8.8-12.56-23.03-20.22-38.36-20.65-5.36-.17-10.7.56-15.82,2.16ZM128.24,226.27c-.35,1.03-1.47,1.58-2.5,1.23-1.03-.35-1.58-1.47-1.23-2.5,7.64-21.94,31.62-33.54,53.56-25.91,21.94,7.64,33.54,31.62,25.91,53.56-3.5,10.06-10.69,18.42-20.12,23.39-.96.5-2.15.13-2.65-.83s-.13-2.15.83-2.65c18.67-9.79,25.87-32.86,16.08-51.53-9.79-18.67-32.86-25.87-51.53-16.08-8.6,4.51-15.16,12.13-18.34,21.31ZM143.7,257.43c.57.92.29,2.13-.63,2.7-.67.42-1.53.39-2.17-.07-11.78-13.03-10.77-33.14,2.26-44.92,13.03-11.78,33.14-10.77,44.92,2.26,11.78,13.03,10.77,33.14-2.26,44.92-6.07,5.49-14.02,8.43-22.21,8.2-1.09-.13-1.87-1.12-1.74-2.21.11-.91.83-1.63,1.74-1.74,15.36.41,28.15-11.71,28.56-27.07.41-15.36-11.71-28.15-27.07-28.56-15.36-.41-28.15,11.71-28.56,27.07-.19,7.15,2.38,14.11,7.18,19.41h-.03ZM164.82,221.27c-9.66-.28-17.72,7.33-17.99,17-.28,9.66,7.33,17.72,17,17.99,9.66.28,17.72-7.33,17.99-17,0-.01,0-.03,0-.04.25-9.65-7.35-17.68-17-17.95ZM164.82,217.32c11.83.33,21.15,10.19,20.82,22.02-.33,11.83-10.19,21.15-22.02,20.82-11.82-.33-21.14-10.18-20.82-22,.33-11.85,10.21-21.18,22.05-20.84.03,0,.05,0,.08,0h-.11ZM164.42,231.6c-3.95-.11-7.24,3.01-7.35,6.96-.11,3.95,3.01,7.24,6.96,7.35,3.94.09,7.23-3.01,7.35-6.96.09-3.94-3.01-7.23-6.96-7.35ZM164.42,227.67c6.2-.01,11.23,5,11.24,11.2.01,6.2-5,11.23-11.2,11.24-6.2.01-11.23-5-11.24-11.2,0-.16,0-.31,0-.47.23-6.11,5.3-10.91,11.42-10.8l-.22.03Z"/>
        <path class="cls-1" d="M104.36,141.12c-17.16,0-31.08,13.93-31.08,31.08,0,12.37,7.22,23.06,17.67,28.09,1.68.78,3.41,1.44,5.24,1.92,2.61.72,5.36,1.11,8.18,1.11,17.19,0,31.11-13.93,31.11-31.11s-13.93-31.08-31.11-31.08ZM66.93,414.95c-1.32,0-2.61.12-3.86.36-1.92.36-3.71.96-5.39,1.8-6.95,3.41-11.74,10.54-11.74,18.81,0,11.59,9.4,20.99,20.99,20.99.93,0,1.83-.06,2.73-.21,1.92-.21,3.77-.72,5.51-1.47,7.49-3.2,12.76-10.66,12.76-19.32,0-11.59-9.4-20.96-20.99-20.96ZM177.91,413.73c-1.26-.87-2.99-.57-3.89.69-26.02,37.22-51.6,57.71-72.02,57.71-2.96,0-5.9-.42-8.71-1.35-7.19-2.34-13.24-7.61-18.12-15.54-5.84-9.55-9.94-23-12.1-39.92-1.17-9.1-1.8-19.2-1.83-30.22-.03-5.69.12-11.59.42-17.61.09-2.31.21-4.61.39-6.98,2.84-43.66,13.3-94.72,30.22-146.59,1.29-3.92,2.58-7.85,3.92-11.71,2.61.72,5.36,1.11,8.18,1.11,17.19,0,31.11-13.93,31.11-31.11s-13.93-31.08-31.11-31.08-31.08,13.93-31.08,31.08c0,12.37,7.22,23.06,17.67,28.09-1.38,3.92-2.7,7.91-4.01,11.89-16.5,50.58-26.92,100.47-30.16,143.65-.21,2.4-.36,4.79-.51,7.13-.45,7.64-.66,15-.63,22.13.03,11.68.72,22.37,2.04,32.01,2.25,16.32,6.26,29.65,11.98,39.59,5.69,9.94,13.06,16.53,21.92,19.41,3.32,1.08,6.77,1.65,10.27,1.65h.18c22.61,0,49.08-20.78,76.57-60.1.9-1.29.6-3.02-.69-3.92ZM104.36,141.12c-17.16,0-31.08,13.93-31.08,31.08,0,12.37,7.22,23.06,17.67,28.09-1.38,3.92-2.7,7.91-4.01,11.89-16.5,50.58-26.92,100.47-30.16,143.65,1.71,1.62,3.47,3.17,5.27,4.67,2.84-43.66,13.3-94.72,30.22-146.59,1.29-3.92,2.58-7.85,3.92-11.71,2.61.72,5.36,1.11,8.18,1.11,17.19,0,31.11-13.93,31.11-31.11s-13.93-31.08-31.11-31.08ZM104.36,141.12c-17.16,0-31.08,13.93-31.08,31.08,0,12.37,7.22,23.06,17.67,28.09-1.38,3.92-2.7,7.91-4.01,11.89-16.5,50.58-26.92,100.47-30.16,143.65-.21,2.4-.36,4.79-.51,7.13,1.77,1.53,3.56,3.05,5.39,4.52.09-2.31.21-4.61.39-6.98,2.84-43.66,13.3-94.72,30.22-146.59,1.29-3.92,2.58-7.85,3.92-11.71,2.61.72,5.36,1.11,8.18,1.11,17.19,0,31.11-13.93,31.11-31.11s-13.93-31.08-31.11-31.08ZM246.25,1.66c-23.66-7.76-53.84,11.83-84.96,55.16-.9,1.26-.6,3.02.66,3.92,1.26.9,2.99.6,3.89-.66C195.01,19.51,223.67.16,244.51,6.99c22.55,7.31,33.9,42.85,31.83,98.46,2.01.21,3.89.84,5.57,1.77,2.37-59.2-10.39-97.39-35.67-105.56ZM330.46,238.87c-.09,45.49-18.66,86.76-48.54,116.67-29.95,29.92-71.21,48.48-116.67,48.54-39.2,0-75.23-13.72-103.59-36.59.09-2.31.21-4.61.39-6.98,27.82,23.69,63.88,37.97,103.2,37.97,87.86-.15,159.47-71.72,159.62-159.62,0-88.01-71.6-159.62-159.62-159.62S5.63,150.85,5.63,238.87c0,46.18,19.7,87.8,51.15,116.97-.21,2.4-.36,4.79-.51,7.13C21.77,332.66,0,288.25,0,238.87,0,147.74,74.12,73.62,165.25,73.62c38.03,0,73.1,12.91,101.04,34.62,3.26,2.52,6.47,5.18,9.52,7.97,1.83,1.62,3.59,3.29,5.3,5,2.07,2.01,4.07,4.07,6.02,6.23,26.89,29.38,43.33,68.55,43.33,111.43ZM289.31,119.83c0,2.79-.78,5.42-2.19,7.61-1.95-2.16-3.95-4.22-6.02-6.23-1.71-1.71-3.47-3.38-5.3-5-3.05-2.79-6.26-5.45-9.52-7.97,2.4-1.8,5.39-2.84,8.59-2.84.51,0,.99.03,1.47.06,2.01.21,3.89.84,5.57,1.77,4.4,2.46,7.4,7.19,7.4,12.61Z"/>
      </g>
    </g>
  </g>
</svg>